<mxfile host="app.diagrams.net" modified="2022-11-11T19:17:02.486Z" agent="5.0 (Macintosh; Intel Mac OS X 10_15_7) AppleWebKit/605.1.15 (KHTML, like Gecko) Version/16.1 Safari/605.1.15" etag="1fh83r9-4FdADaY-ogLi" version="20.5.3" type="github">
  <diagram id="XNInbXK33meSWgX7OLv_" name="Seite-1">
    <mxGraphModel dx="652" dy="428" grid="0" gridSize="10" guides="1" tooltips="1" connect="1" arrows="1" fold="1" page="1" pageScale="1" pageWidth="827" pageHeight="1169" math="0" shadow="0">
      <root>
        <mxCell id="0" />
        <mxCell id="1" parent="0" />
        <mxCell id="rYEEOcifHWdifdd_a8T--3" value="" style="edgeStyle=orthogonalEdgeStyle;rounded=0;orthogonalLoop=1;jettySize=auto;html=1;" edge="1" parent="1" source="rYEEOcifHWdifdd_a8T--1" target="rYEEOcifHWdifdd_a8T--2">
          <mxGeometry relative="1" as="geometry" />
        </mxCell>
        <mxCell id="rYEEOcifHWdifdd_a8T--1" value="1" style="ellipse;whiteSpace=wrap;html=1;aspect=fixed;" vertex="1" parent="1">
          <mxGeometry x="131" y="128" width="38" height="38" as="geometry" />
        </mxCell>
        <mxCell id="rYEEOcifHWdifdd_a8T--5" value="" style="edgeStyle=orthogonalEdgeStyle;rounded=0;orthogonalLoop=1;jettySize=auto;html=1;" edge="1" parent="1" source="rYEEOcifHWdifdd_a8T--2" target="rYEEOcifHWdifdd_a8T--4">
          <mxGeometry relative="1" as="geometry" />
        </mxCell>
        <mxCell id="rYEEOcifHWdifdd_a8T--2" value="1" style="ellipse;whiteSpace=wrap;html=1;aspect=fixed;" vertex="1" parent="1">
          <mxGeometry x="215" y="128" width="38" height="38" as="geometry" />
        </mxCell>
        <mxCell id="rYEEOcifHWdifdd_a8T--7" value="" style="edgeStyle=orthogonalEdgeStyle;rounded=0;orthogonalLoop=1;jettySize=auto;html=1;" edge="1" parent="1" source="rYEEOcifHWdifdd_a8T--4" target="rYEEOcifHWdifdd_a8T--6">
          <mxGeometry relative="1" as="geometry" />
        </mxCell>
        <mxCell id="rYEEOcifHWdifdd_a8T--4" value="0" style="ellipse;whiteSpace=wrap;html=1;aspect=fixed;" vertex="1" parent="1">
          <mxGeometry x="299" y="128" width="38" height="38" as="geometry" />
        </mxCell>
        <mxCell id="rYEEOcifHWdifdd_a8T--6" value="0" style="ellipse;whiteSpace=wrap;html=1;aspect=fixed;" vertex="1" parent="1">
          <mxGeometry x="383" y="128" width="38" height="38" as="geometry" />
        </mxCell>
        <mxCell id="rYEEOcifHWdifdd_a8T--8" value="" style="edgeStyle=orthogonalEdgeStyle;rounded=0;orthogonalLoop=1;jettySize=auto;html=1;exitX=1;exitY=0.5;exitDx=0;exitDy=0;" edge="1" parent="1" source="rYEEOcifHWdifdd_a8T--6">
          <mxGeometry relative="1" as="geometry">
            <mxPoint x="347" y="157" as="sourcePoint" />
            <mxPoint x="583" y="147" as="targetPoint" />
          </mxGeometry>
        </mxCell>
        <mxCell id="rYEEOcifHWdifdd_a8T--9" value="0" style="ellipse;whiteSpace=wrap;html=1;aspect=fixed;" vertex="1" parent="1">
          <mxGeometry x="471" y="81" width="38" height="38" as="geometry" />
        </mxCell>
        <mxCell id="rYEEOcifHWdifdd_a8T--10" value="" style="edgeStyle=orthogonalEdgeStyle;rounded=0;orthogonalLoop=1;jettySize=auto;html=1;entryX=1;entryY=0.5;entryDx=0;entryDy=0;" edge="1" parent="1" target="rYEEOcifHWdifdd_a8T--9">
          <mxGeometry relative="1" as="geometry">
            <mxPoint x="535" y="148" as="sourcePoint" />
            <mxPoint x="393" y="157" as="targetPoint" />
            <Array as="points">
              <mxPoint x="535" y="145" />
              <mxPoint x="535" y="100" />
            </Array>
          </mxGeometry>
        </mxCell>
        <mxCell id="rYEEOcifHWdifdd_a8T--11" value="" style="edgeStyle=orthogonalEdgeStyle;rounded=0;orthogonalLoop=1;jettySize=auto;html=1;exitX=0;exitY=0.5;exitDx=0;exitDy=0;" edge="1" parent="1" source="rYEEOcifHWdifdd_a8T--9">
          <mxGeometry relative="1" as="geometry">
            <mxPoint x="545" y="158" as="sourcePoint" />
            <mxPoint x="449" y="146" as="targetPoint" />
          </mxGeometry>
        </mxCell>
      </root>
    </mxGraphModel>
  </diagram>
</mxfile>
